<svg width="64" height="64" viewBox="0 0 64 64" fill="none" xmlns="http://www.w3.org/2000/svg">
<path d="M25.5198 50.1865C25.0132 50.1865 24.5065 49.9998 24.1065 49.5998L7.91984 33.4132C7.14651 32.6398 7.14651 31.3598 7.91984 30.5865L24.1065 14.3998C24.8798 13.6265 26.1598 13.6265 26.9332 14.3998C27.7065 15.1732 27.7065 16.4532 26.9332 17.2265L12.1598 31.9998L26.9332 46.7732C27.7065 47.5465 27.7065 48.8265 26.9332 49.5998C26.5598 49.9998 26.0265 50.1865 25.5198 50.1865Z" fill="#292D32"/>
<path d="M54.6671 34H9.78711C8.69378 34 7.78711 33.0933 7.78711 32C7.78711 30.9067 8.69378 30 9.78711 30H54.6671C55.7604 30 56.6671 30.9067 56.6671 32C56.6671 33.0933 55.7604 34 54.6671 34Z" fill="#292D32"/>
</svg>
