<svg width="64" height="64" viewBox="0 0 64 64" fill="none" xmlns="http://www.w3.org/2000/svg">
<path d="M44 23.0132C42.9067 23.0132 42 22.1066 42 21.0132V17.3332C42 14.5332 40.8 11.8132 38.72 9.9199C36.6133 7.9999 33.8933 7.1199 31.0133 7.38657C26.2133 7.8399 22 12.7466 22 17.8666V20.4532C22 21.5466 21.0933 22.4532 20 22.4532C18.9067 22.4532 18 21.5466 18 20.4532V17.8399C18 10.6666 23.7867 4.05324 30.64 3.38657C34.64 3.01324 38.48 4.26657 41.4133 6.9599C44.32 9.5999 46 13.3866 46 17.3332V21.0132C46 22.1066 45.0933 23.0132 44 23.0132Z" fill="#292D32"/>
<path d="M39.9995 60.6666H23.9995C11.6795 60.6666 9.38618 54.9333 8.79952 49.3599L6.79952 33.3866C6.50618 30.5066 6.39952 26.3733 9.19952 23.2799C11.5995 20.6133 15.5728 19.3333 21.3328 19.3333H42.6662C48.4528 19.3333 52.4262 20.6399 54.7995 23.2799C57.5728 26.3733 57.4929 30.5066 57.1995 33.3333L55.1995 49.3599C54.6129 54.9333 52.3195 60.6666 39.9995 60.6666ZM21.3328 23.3333C16.8262 23.3333 13.7328 24.2133 12.1595 25.9733C10.8528 27.4133 10.4262 29.6266 10.7728 32.9333L12.7728 48.9066C13.2262 53.1733 14.3995 56.6933 23.9995 56.6933H39.9995C49.5995 56.6933 50.7728 53.1999 51.2262 48.9599L53.2262 32.9333C53.5728 29.6799 53.1462 27.4666 51.8395 25.9999C50.2662 24.2133 47.1728 23.3333 42.6662 23.3333H21.3328Z" fill="#292D32"/>
<path d="M41.1191 35.0667C39.6258 35.0667 38.4258 33.8667 38.4258 32.4001C38.4258 30.9334 39.6258 29.7334 41.0924 29.7334C42.5591 29.7334 43.7591 30.9334 43.7591 32.4001C43.7591 33.8667 42.5858 35.0667 41.1191 35.0667Z" fill="#292D32"/>
<path d="M22.4531 35.0667C20.9598 35.0667 19.7598 33.8667 19.7598 32.4001C19.7598 30.9334 20.9598 29.7334 22.4264 29.7334C23.8931 29.7334 25.0931 30.9334 25.0931 32.4001C25.0931 33.8667 23.9198 35.0667 22.4531 35.0667Z" fill="#292D32"/>
</svg>
