<svg width="64" height="64" viewBox="0 0 64 64" fill="none" xmlns="http://www.w3.org/2000/svg">
<path d="M56 20.6667H8C6.90667 20.6667 6 19.7601 6 18.6667C6 17.5734 6.90667 16.6667 8 16.6667H56C57.0933 16.6667 58 17.5734 58 18.6667C58 19.7601 57.0933 20.6667 56 20.6667Z" fill="#292D32"/>
<path d="M56 34H8C6.90667 34 6 33.0933 6 32C6 30.9067 6.90667 30 8 30H56C57.0933 30 58 30.9067 58 32C58 33.0933 57.0933 34 56 34Z" fill="#292D32"/>
<path d="M56 47.3333H8C6.90667 47.3333 6 46.4266 6 45.3333C6 44.2399 6.90667 43.3333 8 43.3333H56C57.0933 43.3333 58 44.2399 58 45.3333C58 46.4266 57.0933 47.3333 56 47.3333Z" fill="#292D32"/>
</svg>
