<svg width="64" height="64" viewBox="0 0 64 64" fill="none" xmlns="http://www.w3.org/2000/svg">
<path d="M32.1869 5.38663C28.4269 5.38663 24.6402 6.82662 21.7869 9.67995L9.7069 21.76C6.77357 24.6933 5.2269 28.7466 5.41357 32.88L6.05357 46.24C6.3469 52.6133 11.3869 57.6533 17.7869 57.9733L31.1202 58.6133C35.2802 58.8 39.3069 57.2533 42.2402 54.32L54.3202 42.24C60.0536 36.5066 60.0536 27.1466 54.3202 21.4133L42.6136 9.70662C39.7336 6.82662 35.9736 5.38663 32.1869 5.38663ZM12.5336 24.6133L24.6136 12.5333C28.8002 8.34663 35.6002 8.34663 39.7869 12.5333L51.4936 24.24C55.6802 28.4266 55.6802 35.2266 51.4936 39.4133L39.3869 51.4666C37.2536 53.6 34.3469 54.72 31.2802 54.5866L17.9469 53.9466C13.6269 53.76 10.2402 50.3733 10.0269 46.0533L9.3869 32.6933C9.25357 29.7066 10.4002 26.7466 12.5336 24.6133Z" fill="#B9B9B9"/>
<path d="M25.3327 30.0002C20.5593 30.0002 16.666 33.8935 16.666 38.6668C16.666 43.4402 20.5593 47.3335 25.3327 47.3335C30.106 47.3335 33.9993 43.4402 33.9993 38.6668C33.9993 33.8935 30.106 30.0002 25.3327 30.0002ZM25.3327 43.3335C22.7727 43.3335 20.666 41.2268 20.666 38.6668C20.666 36.1068 22.7727 34.0002 25.3327 34.0002C27.8927 34.0002 29.9993 36.1068 29.9993 38.6668C29.9993 41.2268 27.8927 43.3335 25.3327 43.3335Z" fill="#B9B9B9"/>
<path d="M34.6672 16.6667C34.1605 16.6667 33.6538 16.8533 33.2538 17.2533C32.4805 18.0267 32.4805 19.3067 33.2538 20.08L43.9205 30.7467C44.6938 31.52 45.9738 31.52 46.7472 30.7467C47.5205 29.9733 47.5205 28.6933 46.7472 27.92L36.0805 17.2533C35.6805 16.8533 35.1738 16.6667 34.6672 16.6667Z" fill="#B9B9B9"/>
</svg>
