<svg width="64" height="64" viewBox="0 0 64 64" fill="none" xmlns="http://www.w3.org/2000/svg">
<path d="M31.9993 33.9999C23.546 33.9999 16.666 27.1199 16.666 18.6666C16.666 10.2133 23.546 3.33325 31.9993 3.33325C40.4527 3.33325 47.3327 10.2133 47.3327 18.6666C47.3327 27.1199 40.4527 33.9999 31.9993 33.9999ZM31.9993 7.33325C25.7593 7.33325 20.666 12.4266 20.666 18.6666C20.666 24.9066 25.7593 29.9999 31.9993 29.9999C38.2393 29.9999 43.3327 24.9066 43.3327 18.6666C43.3327 12.4266 38.2393 7.33325 31.9993 7.33325Z" fill="#292D32"/>
<path d="M54.9071 60.6667C53.8137 60.6667 52.9071 59.76 52.9071 58.6667C52.9071 49.4667 43.5204 42 32.0004 42C20.4804 42 11.0937 49.4667 11.0937 58.6667C11.0937 59.76 10.1871 60.6667 9.09375 60.6667C8.00042 60.6667 7.09375 59.76 7.09375 58.6667C7.09375 47.28 18.2671 38 32.0004 38C45.7337 38 56.9071 47.28 56.9071 58.6667C56.9071 59.76 56.0004 60.6667 54.9071 60.6667Z" fill="#292D32"/>
</svg>
